<svg id="Layer_1" data-name="Layer 1" xmlns="http://www.w3.org/2000/svg" viewBox="0 0 1000 1000"><defs><style>.cls-1{fill:orange;}.cls-2{fill:#fff;}</style></defs><path class="cls-1" d="M277.52,168.07h445c72,0,130.39,54.86,130.39,122.53V708.72c0,67.68-58.38,122.53-130.39,122.53h-445c-72,0-130.38-54.85-130.38-122.53V290.6C147.14,222.93,205.51,168.07,277.52,168.07Z"/><path d="M722.48,839.32h-445c-76.34,0-138.45-58.58-138.45-130.6V290.6c0-72,62.11-130.59,138.45-130.59h445c76.34,0,138.45,58.58,138.45,130.59V708.72c0,72-62.11,130.6-138.45,130.6Zm-445-663.18c-67.45,0-122.32,51.35-122.32,114.46V708.72c0,63.12,54.87,114.46,122.32,114.46h445c67.45,0,122.32-51.34,122.32-114.46V290.6c0-63.11-54.87-114.46-122.32-114.46Z"/><path d="M396.3,280.34l134,.32q42-.33,62.72,13.41,25.31,16.81,25.3,57.9,0,67.63-62.73,76.62v.63q27.66,6.9,28,45.81,0,19.94-1.49,51.07,0,20.88,8.85,36.12H517.49q-5.15-5.57-5.14-22.71,2.11-28.67,2.11-47,0-37.08-35.63-37.08H431.32l-20.72,100H339.08l57.22-275Zm113.27,57.32H456.93L443.2,404h57q47.76,0,48.07-37.71,0-28.65-38.67-28.66Z"/><path d="M600.64,561.91l53-91.88,14.29,92.51h90.44l-81.6,58.59L689.85,713,619.2,657.57l-95,57.64,44.43-97.82-51.78-55.74,83.76.26ZM842.28,804.23a17.59,17.59,0,0,1,8.59,2.31,16.2,16.2,0,0,1,6.54,6.61,18.31,18.31,0,0,1,0,17.86,16.55,16.55,0,0,1-6.46,6.63,17.3,17.3,0,0,1-17.41,0A16.58,16.58,0,0,1,827.1,831a18.24,18.24,0,0,1,0-17.86,16.29,16.29,0,0,1,6.55-6.61,17.63,17.63,0,0,1,8.6-2.31Zm0,3a14.57,14.57,0,0,0-7.17,1.93,13.68,13.68,0,0,0-5.46,5.52,15.19,15.19,0,0,0,0,14.89,13.94,13.94,0,0,0,5.41,5.52,14.28,14.28,0,0,0,14.51,0,13.85,13.85,0,0,0,5.4-5.52,15.33,15.33,0,0,0,1.92-7.41,15.51,15.51,0,0,0-2-7.48,13.56,13.56,0,0,0-5.46-5.52,14.55,14.55,0,0,0-7.15-1.93ZM834.61,832V812.76h6.46a15.7,15.7,0,0,1,4.8.53,4.67,4.67,0,0,1,2.36,1.86,5,5,0,0,1,.88,2.82,5.19,5.19,0,0,1-1.47,3.68,5.77,5.77,0,0,1-3.9,1.75,5.13,5.13,0,0,1,1.59,1,22.11,22.11,0,0,1,2.79,3.81l2.29,3.77H846.7L845,829a15.77,15.77,0,0,0-3.18-4.48,3.86,3.86,0,0,0-2.43-.67h-1.79V832h-3Zm3-10.84h3.69a5.8,5.8,0,0,0,3.6-.81,2.82,2.82,0,0,0,.5-3.66,2.83,2.83,0,0,0-1.29-1,9.28,9.28,0,0,0-3-.34h-3.46Z"/><path class="cls-2" d="M662.44,614.55,716.63,576h-60l-10.39-67-38,66.32H547.68l36.81,39.55-30.44,66.37,66.07-39.86,52.09,40.81Z"/></svg>